<svg width="155" height="155" viewBox="0 0 155 155" fill="none" xmlns="http://www.w3.org/2000/svg">
<path d="M49.0812 86.45C47.7912 86.45 46.5512 86.265 45.3612 85.895C44.1812 85.525 43.2062 85.03 42.4362 84.41L43.5162 81.68C44.2062 82.28 45.0312 82.74 45.9912 83.06C46.9512 83.37 47.9212 83.525 48.9012 83.525C49.8812 83.525 50.7312 83.365 51.4512 83.045C52.1712 82.715 52.7262 82.245 53.1162 81.635C53.5062 81.025 53.7012 80.285 53.7012 79.415C53.7012 78.615 53.4962 77.93 53.0862 77.36C52.6762 76.78 52.1062 76.335 51.3762 76.025C50.6562 75.715 49.8362 75.56 48.9162 75.56C48.3262 75.56 47.7162 75.63 47.0862 75.77C46.4562 75.91 45.8112 76.125 45.1512 76.415L43.7712 74.93L44.8512 65.03L56.4312 65.015V67.955H47.2362L46.6062 73.43C47.1262 73.26 47.6412 73.13 48.1512 73.04C48.6712 72.95 49.1862 72.905 49.6962 72.905C51.0762 72.905 52.3112 73.17 53.4012 73.7C54.4912 74.22 55.3512 74.975 55.9812 75.965C56.6212 76.955 56.9412 78.14 56.9412 79.52C56.9412 80.92 56.6062 82.14 55.9362 83.18C55.2762 84.22 54.3562 85.025 53.1762 85.595C51.9962 86.165 50.6312 86.45 49.0812 86.45ZM68.2807 86.45C66.9407 86.45 65.7357 86.165 64.6657 85.595C63.6057 85.025 62.7007 84.235 61.9507 83.225C61.2107 82.215 60.6457 81.05 60.2557 79.73C59.8657 78.41 59.6707 77 59.6707 75.5C59.6707 73.99 59.8657 72.575 60.2557 71.255C60.6457 69.935 61.2107 68.775 61.9507 67.775C62.7007 66.765 63.6057 65.975 64.6657 65.405C65.7357 64.835 66.9407 64.55 68.2807 64.55C69.6207 64.55 70.8207 64.835 71.8807 65.405C72.9507 65.975 73.8557 66.765 74.5957 67.775C75.3457 68.775 75.9157 69.935 76.3057 71.255C76.7057 72.575 76.9057 73.99 76.9057 75.5C76.9057 77 76.7057 78.41 76.3057 79.73C75.9157 81.05 75.3457 82.215 74.5957 83.225C73.8557 84.235 72.9507 85.025 71.8807 85.595C70.8207 86.165 69.6207 86.45 68.2807 86.45ZM68.2807 83.48C69.0807 83.48 69.8057 83.3 70.4557 82.94C71.1057 82.57 71.6657 82.04 72.1357 81.35C72.6157 80.66 72.9807 79.825 73.2307 78.845C73.4807 77.855 73.6057 76.74 73.6057 75.5C73.6057 73.84 73.3807 72.415 72.9307 71.225C72.4907 70.025 71.8707 69.11 71.0707 68.48C70.2807 67.84 69.3507 67.52 68.2807 67.52C67.4907 67.52 66.7657 67.705 66.1057 68.075C65.4557 68.435 64.8957 68.96 64.4257 69.65C63.9557 70.34 63.5907 71.175 63.3307 72.155C63.0807 73.135 62.9557 74.25 62.9557 75.5C62.9557 77.16 63.1757 78.585 63.6157 79.775C64.0657 80.965 64.6907 81.88 65.4907 82.52C66.2907 83.16 67.2207 83.48 68.2807 83.48ZM88.4313 86.51L86.5863 85.415L98.2863 64.49L100.131 65.51L88.4313 86.51ZM84.7413 75.935C83.6813 75.935 82.7163 75.685 81.8463 75.185C80.9763 74.675 80.2813 73.995 79.7613 73.145C79.2513 72.295 78.9963 71.345 78.9963 70.295C78.9963 69.265 79.2513 68.325 79.7613 67.475C80.2813 66.625 80.9763 65.95 81.8463 65.45C82.7163 64.95 83.6813 64.7 84.7413 64.7C85.8113 64.7 86.7763 64.95 87.6363 65.45C88.4963 65.95 89.1813 66.625 89.6913 67.475C90.2113 68.325 90.4713 69.265 90.4713 70.295C90.4713 71.335 90.2113 72.285 89.6913 73.145C89.1813 73.995 88.4963 74.675 87.6363 75.185C86.7763 75.685 85.8113 75.935 84.7413 75.935ZM84.7413 73.655C85.4113 73.655 85.9963 73.515 86.4963 73.235C86.9963 72.945 87.3863 72.55 87.6663 72.05C87.9463 71.54 88.0863 70.955 88.0863 70.295C88.0863 69.305 87.7813 68.505 87.1713 67.895C86.5613 67.285 85.7513 66.98 84.7413 66.98C84.0813 66.98 83.4963 67.125 82.9863 67.415C82.4863 67.695 82.0913 68.085 81.8013 68.585C81.5213 69.075 81.3813 69.645 81.3813 70.295C81.3813 71.285 81.6913 72.095 82.3113 72.725C82.9413 73.345 83.7513 73.655 84.7413 73.655ZM102.006 86.3C100.936 86.3 99.9663 86.05 99.0963 85.55C98.2363 85.04 97.5463 84.36 97.0263 83.51C96.5063 82.65 96.2463 81.7 96.2463 80.66C96.2463 79.63 96.5063 78.69 97.0263 77.84C97.5463 76.99 98.2363 76.315 99.0963 75.815C99.9663 75.315 100.936 75.065 102.006 75.065C103.066 75.065 104.026 75.315 104.886 75.815C105.756 76.315 106.446 76.99 106.956 77.84C107.466 78.69 107.721 79.63 107.721 80.66C107.721 81.7 107.466 82.65 106.956 83.51C106.446 84.36 105.756 85.04 104.886 85.55C104.026 86.05 103.066 86.3 102.006 86.3ZM102.006 84.02C102.666 84.02 103.246 83.88 103.746 83.6C104.256 83.31 104.651 82.915 104.931 82.415C105.211 81.905 105.351 81.32 105.351 80.66C105.351 79.67 105.041 78.87 104.421 78.26C103.811 77.65 103.006 77.345 102.006 77.345C101.336 77.345 100.746 77.485 100.236 77.765C99.7363 78.045 99.3413 78.435 99.0513 78.935C98.7713 79.435 98.6313 80.01 98.6313 80.66C98.6313 81.64 98.9413 82.445 99.5613 83.075C100.191 83.705 101.006 84.02 102.006 84.02Z" fill="#111111"/>
<circle cx="75" cy="75" r="70" stroke="#F3F4F5" stroke-width="10"/>
<path fill-rule="evenodd" clip-rule="evenodd" d="M74.9967 150.194C114.84 150.594 148.333 119.566 150.576 79.375C152.884 38.018 121.229 2.62039 79.8717 0.312208C78.2368 0.220963 76.6113 0.182793 74.9967 0.196199L74.9967 10.197C76.4265 10.1831 77.8663 10.2158 79.3145 10.2967C115.157 12.2971 142.592 42.975 140.591 78.8178C138.646 113.681 109.568 140.589 74.9967 140.193L74.9967 150.194Z" fill="#CCA88A"/>
</svg>
