<svg width="154" height="156" viewBox="0 0 154 156" fill="none" xmlns="http://www.w3.org/2000/svg">
<path d="M54.3721 87.7543C52.7921 87.7543 51.3921 87.4143 50.1721 86.7343C48.9521 86.0543 47.9921 85.0743 47.2921 83.7943C46.5921 82.5043 46.2421 80.9493 46.2421 79.1293C46.2421 77.3593 46.5721 75.7293 47.2321 74.2393C47.8921 72.7393 48.8171 71.4143 50.0071 70.2643C51.1971 69.1043 52.5871 68.1493 54.1771 67.3993C55.7771 66.6493 57.5121 66.1343 59.3821 65.8543L60.5521 68.4343C59.0221 68.5943 57.6621 68.9143 56.4721 69.3943C55.2821 69.8643 54.2571 70.4493 53.3971 71.1493C52.5471 71.8493 51.8521 72.6293 51.3121 73.4893C50.7721 74.3393 50.3721 75.2293 50.1121 76.1593C50.6721 75.4393 51.3821 74.8693 52.2421 74.4493C53.1021 74.0193 54.0371 73.8043 55.0471 73.8043C56.3971 73.8043 57.6121 74.0893 58.6921 74.6593C59.7821 75.2293 60.6371 76.0193 61.2571 77.0293C61.8871 78.0393 62.2021 79.2043 62.2021 80.5243C62.2021 81.5343 62.0121 82.4793 61.6321 83.3593C61.2521 84.2393 60.7121 85.0093 60.0121 85.6693C59.3121 86.3193 58.4821 86.8293 57.5221 87.1993C56.5721 87.5693 55.5221 87.7543 54.3721 87.7543ZM54.3721 84.9043C55.2621 84.9043 56.0521 84.7243 56.7421 84.3643C57.4321 84.0043 57.9721 83.5143 58.3621 82.8943C58.7621 82.2643 58.9621 81.5443 58.9621 80.7343C58.9621 79.9343 58.7571 79.2193 58.3471 78.5893C57.9471 77.9593 57.3971 77.4593 56.6971 77.0893C56.0071 76.7193 55.2321 76.5343 54.3721 76.5343C53.5021 76.5343 52.7171 76.7193 52.0171 77.0893C51.3271 77.4593 50.7771 77.9593 50.3671 78.5893C49.9671 79.2193 49.7671 79.9343 49.7671 80.7343C49.7671 81.5443 49.9621 82.2643 50.3521 82.8943C50.7521 83.5143 51.2971 84.0043 51.9871 84.3643C52.6771 84.7243 53.4721 84.9043 54.3721 84.9043ZM68.7376 87.3043V69.8443L63.2926 71.8393L62.4226 69.2293L71.6176 65.8543H71.8576V87.3043H68.7376ZM85.1354 87.8143L83.2904 86.7193L94.9904 65.7943L96.8354 66.8143L85.1354 87.8143ZM81.4454 77.2393C80.3854 77.2393 79.4204 76.9893 78.5504 76.4893C77.6804 75.9793 76.9854 75.2993 76.4654 74.4493C75.9554 73.5993 75.7004 72.6493 75.7004 71.5993C75.7004 70.5693 75.9554 69.6293 76.4654 68.7793C76.9854 67.9293 77.6804 67.2543 78.5504 66.7543C79.4204 66.2543 80.3854 66.0043 81.4454 66.0043C82.5154 66.0043 83.4804 66.2543 84.3404 66.7543C85.2004 67.2543 85.8854 67.9293 86.3954 68.7793C86.9154 69.6293 87.1754 70.5693 87.1754 71.5993C87.1754 72.6393 86.9154 73.5893 86.3954 74.4493C85.8854 75.2993 85.2004 75.9793 84.3404 76.4893C83.4804 76.9893 82.5154 77.2393 81.4454 77.2393ZM81.4454 74.9593C82.1154 74.9593 82.7004 74.8193 83.2004 74.5393C83.7004 74.2493 84.0904 73.8543 84.3704 73.3543C84.6504 72.8443 84.7904 72.2593 84.7904 71.5993C84.7904 70.6093 84.4854 69.8093 83.8754 69.1993C83.2654 68.5893 82.4554 68.2843 81.4454 68.2843C80.7854 68.2843 80.2004 68.4293 79.6904 68.7193C79.1904 68.9993 78.7954 69.3893 78.5054 69.8893C78.2254 70.3793 78.0854 70.9493 78.0854 71.5993C78.0854 72.5893 78.3954 73.3993 79.0154 74.0293C79.6454 74.6493 80.4554 74.9593 81.4454 74.9593ZM98.7104 87.6043C97.6404 87.6043 96.6704 87.3543 95.8004 86.8543C94.9404 86.3443 94.2504 85.6643 93.7304 84.8143C93.2104 83.9543 92.9504 83.0043 92.9504 81.9643C92.9504 80.9343 93.2104 79.9943 93.7304 79.1443C94.2504 78.2943 94.9404 77.6193 95.8004 77.1193C96.6704 76.6193 97.6404 76.3693 98.7104 76.3693C99.7704 76.3693 100.73 76.6193 101.59 77.1193C102.46 77.6193 103.15 78.2943 103.66 79.1443C104.17 79.9943 104.425 80.9343 104.425 81.9643C104.425 83.0043 104.17 83.9543 103.66 84.8143C103.15 85.6643 102.46 86.3443 101.59 86.8543C100.73 87.3543 99.7704 87.6043 98.7104 87.6043ZM98.7104 85.3243C99.3704 85.3243 99.9504 85.1843 100.45 84.9043C100.96 84.6143 101.355 84.2193 101.635 83.7193C101.915 83.2093 102.055 82.6243 102.055 81.9643C102.055 80.9743 101.745 80.1743 101.125 79.5643C100.515 78.9543 99.7104 78.6493 98.7104 78.6493C98.0404 78.6493 97.4504 78.7893 96.9404 79.0693C96.4404 79.3493 96.0454 79.7393 95.7554 80.2393C95.4754 80.7393 95.3354 81.3143 95.3354 81.9643C95.3354 82.9443 95.6454 83.7493 96.2654 84.3793C96.8954 85.0093 97.7104 85.3243 98.7104 85.3243Z" fill="#111111"/>
<circle cx="75" cy="76.3043" r="70" stroke="#F3F4F5" stroke-width="10"/>
<path fill-rule="evenodd" clip-rule="evenodd" d="M47.231 146.001C54.4889 148.857 62.3195 150.621 70.5326 151.079C111.89 153.387 147.287 121.732 149.595 80.375C151.904 39.018 120.248 3.62039 78.8913 1.31221C78.6646 1.29956 78.4382 1.28793 78.2119 1.27732L76.0857 11.2095C76.8327 11.2257 77.5823 11.2547 78.334 11.2967C114.177 13.2971 141.611 43.975 139.611 79.8178C137.611 115.66 106.933 143.095 71.0899 141.095C63.3881 140.665 56.0746 138.911 49.3579 136.066L47.231 146.001Z" fill="#CCA88A"/>
</svg>
