<svg width="50" height="45" viewBox="0 0 50 45" fill="none" xmlns="http://www.w3.org/2000/svg">
<path d="M25 31.6111V43M38.8 43L29.7118 35.4996C28.0356 34.1163 27.1975 33.4246 26.2619 33.1603C25.4371 32.9273 24.5629 32.9273 23.7381 33.1603C22.8025 33.4246 21.9644 34.1163 20.2882 35.4996L11.2 43M15.8 20.2222V22.5M25 15.6667V22.5M34.2 11.1111V22.5M48 2H2M4.3 2H45.7V20.6778C45.7 24.5048 45.7 26.4183 44.9479 27.88C44.2864 29.1658 43.2309 30.2112 41.9325 30.8663C40.4565 31.6111 38.5244 31.6111 34.66 31.6111H15.34C11.4756 31.6111 9.54346 31.6111 8.06747 30.8663C6.76915 30.2112 5.71358 29.1658 5.05206 27.88C4.3 26.4183 4.3 24.5048 4.3 20.6778V2Z" stroke="#CCA88A" stroke-width="4" stroke-linecap="round" stroke-linejoin="round"/>
</svg>
