<svg width="58" height="36" viewBox="0 0 58 36" fill="none" xmlns="http://www.w3.org/2000/svg">
<path d="M39.5455 15.4286C43.9218 15.4286 47.4282 11.9829 47.4282 7.71429C47.4282 3.44571 43.9218 0 39.5455 0C35.1691 0 31.6364 3.44571 31.6364 7.71429C31.6364 11.9829 35.1691 15.4286 39.5455 15.4286ZM18.4545 15.4286C22.8309 15.4286 26.3373 11.9829 26.3373 7.71429C26.3373 3.44571 22.8309 0 18.4545 0C14.0782 0 10.5455 3.44571 10.5455 7.71429C10.5455 11.9829 14.0782 15.4286 18.4545 15.4286ZM18.4545 20.5714C12.3118 20.5714 0 23.58 0 29.5714V36H36.9091V29.5714C36.9091 23.58 24.5973 20.5714 18.4545 20.5714ZM39.5455 20.5714C38.7809 20.5714 37.9109 20.6229 36.9882 20.7C40.0464 22.86 42.1818 25.7657 42.1818 29.5714V36H58V29.5714C58 23.58 45.6882 20.5714 39.5455 20.5714Z" fill="#CCA88A"/>
</svg>
