<svg width="38" height="39" viewBox="0 0 38 39" fill="none" xmlns="http://www.w3.org/2000/svg">
<rect y="0.445312" width="38" height="38" rx="4.60606" fill="#B38D69"/>
<path d="M31.09 16.2682C31.09 14.4614 29.6137 12.9967 27.7925 12.9967H27.2429V10.6257C27.2429 8.62366 25.4466 7.0912 23.4514 7.39112L9.71174 9.45648C8.09973 9.6988 6.9082 11.0735 6.9082 12.6911V28.2638C6.9082 30.0706 8.38455 31.5353 10.2057 31.5353H27.7925C29.6137 31.5353 31.09 30.0706 31.09 28.2638V16.2682ZM25.0446 10.6257V12.9967H10.2057C9.82031 12.9967 9.45035 13.0623 9.10655 13.1828V12.6911C9.10655 12.1519 9.50373 11.6937 10.0411 11.6129L23.7807 9.54753C24.4458 9.44755 25.0446 9.95838 25.0446 10.6257ZM9.10655 16.2682C9.10655 15.6659 9.59867 15.1777 10.2057 15.1777H27.7925C28.3996 15.1777 28.8917 15.6659 28.8917 16.2682V18.4492H25.0446C22.9199 18.4492 21.1975 20.158 21.1975 22.266C21.1975 24.3739 22.9199 26.0828 25.0446 26.0828H28.8917V28.2638C28.8917 28.8661 28.3996 29.3543 27.7925 29.3543H10.2057C9.59867 29.3543 9.10655 28.8661 9.10655 28.2638V16.2682ZM28.8917 23.9018H25.0446C24.134 23.9018 23.3958 23.1694 23.3958 22.266C23.3958 21.3626 24.134 20.6302 25.0446 20.6302H28.8917V23.9018Z" fill="#F3F4F5"/>
</svg>
