<svg width="43" height="41" viewBox="0 0 43 41" fill="none" xmlns="http://www.w3.org/2000/svg">
<path d="M21.2784 23.9166V37.5833H7.09277C7.09277 33.9587 8.58733 30.4825 11.2477 27.9195C13.908 25.3565 17.5162 23.9166 21.2784 23.9166ZM31.9177 36.7291L26.7062 39.3685L27.701 33.7789L23.4861 29.8189L29.3128 29.0024L31.9177 23.9166L34.5243 29.0024L40.3493 29.8189L36.1344 33.7789L37.1273 39.3685L31.9177 36.7291ZM21.2784 22.2083C15.4002 22.2083 10.6392 17.6214 10.6392 11.9583C10.6392 6.29519 15.4002 1.70831 21.2784 1.70831C27.1566 1.70831 31.9177 6.29519 31.9177 11.9583C31.9177 17.6214 27.1566 22.2083 21.2784 22.2083Z" fill="url(#paint0_linear_447_49)"/>
<defs>
<linearGradient id="paint0_linear_447_49" x1="23.721" y1="1.70831" x2="35.57" y2="37.9279" gradientUnits="userSpaceOnUse">
<stop offset="0.01" stop-color="#DFBEA5"/>
<stop offset="0.425" stop-color="#B38D69"/>
<stop offset="1" stop-color="#DFBEA5"/>
</linearGradient>
</defs>
</svg>
